<?xml version="1.0" encoding="UTF-8"?>
<svg version="1.1" viewBox="0 0 2e3 590" xml:space="preserve" xmlns="http://www.w3.org/2000/svg">
<path d="m1547.8 489.11c8.4572 12.489 20.576 17.88 34.621 19.767 18.449 2.4781 36.742 0.34763 55.037-1.9542 4.6925-0.59042 6.6583-2.2921 6.6423-7.5467-0.1969-64.817-0.12891-129.63-0.12476-194.45 3.67e-4 -7.4413 0.013184-7.466 7.3663-7.4807 9.4976-0.018982 18.996 0.091156 28.492-0.029022 3.7764-0.047821 5.2113 1.2539 5.2061 5.2415-0.099976 75.814-0.096314 151.63-0.008667 227.44 0.004028 3.529-1.3253 5.2542-4.6033 5.7904-14.533 2.3774-28.991 5.5783-43.619 6.9056-17.338 1.5734-34.845 2.3932-52.24 1.9693-21.687-0.52844-42.33-5.5017-59.995-19.414-13.789-10.86-21.544-25.238-24.378-42.074-1.7517-10.407-2.0686-21.14-2.1304-31.732-0.23096-39.655-0.044922-79.313-0.16223-118.97-0.011841-4.0243 1.0022-6.7251 4.4753-9.1533 11.425-7.9876 22.572-16.373 33.842-24.584 0.49548-0.36093 1.1505-0.50266 2.7523-1.1751 0 2.6448-1.22e-4 4.6982-1.22e-4 6.7515 2.44e-4 48.488-0.27466 96.979 0.2218 145.46 0.10535 10.285 2.8577 20.572 4.7584 30.789 0.52942 2.8455 2.3776 5.4457 3.8473 8.4442z" fill="#4C1354"/>
<path d="m561.51 400.65c15.811-29.335 40.285-44.335 72.936-47.112 18-1.5307 35.033 1.2114 51.237 8.9953 24.407 11.725 39.057 31.391 45.279 57.375 5.9078 24.67 4.4166 48.902-7.4184 71.683-13.872 26.701-36.513 41.204-66.044 45.416-16.029 2.2864-31.803 1.2231-47.124-4.1138-30.466-10.612-48.993-32.33-56.034-63.31-5.3115-23.371-3.1677-46.534 7.1686-68.934m31.735 56.338c0.20258 0.63354 0.50946 1.2537 0.59265 1.9026 3.0956 24.156 23.706 46.208 52.409 44.203 17.087-1.1933 35.03-13.255 41.774-29.411 5.0491-12.096 5.8531-24.599 4.7739-37.194-1.162-13.562-6.2192-25.939-16.216-35.555-23.11-22.229-62.17-15.359-76.782 13.118-6.8611 13.371-7.9598 27.486-6.5516 42.936z" fill="#4C1354"/>
<path d="m1248.9 400.95c11.36-24.351 29.838-39.95 55.661-45.4 25.386-5.3574 49.909-3.1412 71.202 13.949 11.418 9.1649 17.103 21.807 21.12 35.342 4.5294 15.259 3.0824 30.99 2.9636 46.581-0.008667 1.1323-1.9003 2.7078-3.2485 3.248-1.4437 0.57843-3.281 0.19647-4.9464 0.19669-35.151 0.004547-70.303 0.003753-105.45 0.004028-2.2899 0-4.58 3.1e-5 -7.2109 3.1e-5 -0.28101 10.599 3.4595 19.169 9.4192 26.653 11.591 14.556 27.093 21.088 45.578 21.436 13.457 0.25308 26.405-1.819 39.054-6.3683 1.349-0.48517 4.0505 0.34085 4.9573 1.4843 4.9388 6.2282 9.3921 12.839 14.261 19.126 2.4507 3.1643 1.4912 4.8603-1.55 6.6443-9.8464 5.776-20.417 9.532-31.602 11.585-21.536 3.9536-42.998 4.2086-63.818-3.3838-30.97-11.294-48.673-33.737-54.349-66.101-3.465-19.757-1.6335-38.949 4.8619-57.797 0.80823-2.3454 1.9603-4.5723 3.1012-7.1993m113 19.068c-2.8621-6.8282-4.5594-14.509-8.8132-20.318-11.018-15.046-36.058-15.785-50.863-6.7181-11.148 6.8279-17.071 17.318-20.904 29.336-1.9031 5.9663-1.584 6.4669 4.871 6.4736 22.651 0.023529 45.303 0.014831 67.955 0.009094 7.9596-0.002045 7.9596-0.014343 7.7555-8.7823z" fill="#4C1354"/>
<path d="m215 498c-0.003494 10.661-0.11424 20.824 0.047241 30.982 0.057099 3.5909-1.0473 5.0955-4.8302 5.0322-10.491-0.17566-20.99-0.17981-31.481 4.28e-4 -3.8365 0.065918-4.7828-1.5449-4.7777-5.0787 0.075088-52.138 0.077209-104.28-0.009888-156.41-0.00534-3.1989 1.1399-4.7452 4.0878-5.7631 21.779-7.5197 44.044-12.079 67.148-13.307 14.751-0.78369 29.116 0.005127 43.323 3.879 23.365 6.3712 35.714 22.364 39.383 45.655 0.84738 5.3792 1.0498 10.904 1.0633 16.363 0.088989 35.98 0.050781 71.961 0.039306 107.94-0.002105 6.6297-0.03302 6.653-6.58 6.6692-8.9951 0.0224-18-0.24585-26.981 0.10406-4.9797 0.19409-6.5696-1.3065-6.5392-6.4334 0.20892-35.313 0.11725-70.628 0.1033-105.94-0.006622-16.774-10.527-28.513-27.076-30.984-14.085-2.1026-27.749 0.14398-41.488 2.6929-4.3828 0.81308-5.5237 2.9495-5.5055 7.1559 0.14015 32.315 0.075287 64.631 0.074066 97.447z" fill="#4C1354"/>
<path d="m1056.5 533.62c-16.75 1.5403-33.081 3.9144-49.431 4.0646-15.516 0.14252-31.071-1.6716-45.797-7.7277-18.038-7.4183-30.527-23.687-30.495-44.269 0.023925-15.162 3.5654-28.334 15.355-38.32 9.4687-8.0199 20.865-12.029 32.886-14.554 14.091-2.96 28.339-3.1985 42.645-3.048 10.593 0.11142 9.1873 0.58936 9.3105-9.5014 0.016357-1.3326-0.089722-2.6729 0.015869-3.9973 1.3917-17.446-12.966-26.502-27.125-27.47-18.22-1.246-35.358 2.5259-51.43 11.199-1.4144 0.76324-2.9423 1.3159-5.0115 2.2282-0.1875-2.0594-0.41986-3.4706-0.42718-4.883-0.037964-7.3303 0.492-14.707-0.16937-21.978-0.60449-6.6443 2.1035-9.7543 7.9484-12.215 15.372-6.4705 31.392-10.158 47.911-10.254 14.417-0.083649 28.866 1.3294 42.004 8.5818 15.209 8.3952 24.443 21.599 24.955 38.395 1.2877 42.251 0.95825 84.55 1.3624 126.83 0.028076 2.9385-1.194 4.2036-3.8759 4.6916-3.4199 0.62225-6.814 1.3862-10.631 2.2269m-84.354-42.677c3.8877 7.6533 10.444 11.79 18.482 13.883 11.766 3.0636 23.635 2.4147 35.581 1.2 3.6633-0.37247 4.8694-1.5233 4.8138-5.1093-0.15979-10.316-0.049438-20.637-0.048217-30.956 0.001709-13.085 4.88e-4 -13.08-13.193-13.086-11.852-0.005158-23.546 0.81668-34.41 6.2647-10.901 5.4665-14.96 15.037-11.226 27.804z" fill="#4C1354"/>
<path d="m482 477c-7.02e-4 -17.498 0.27927-34.504-0.15619-51.491-0.15012-5.8558-1.3748-11.92-3.3536-17.442-3.7338-10.421-12.351-15.199-22.777-17.115-15.221-2.7982-30.084-0.19647-44.904 3.05-3.6569 0.80106-3.8423 3.3965-3.8357 6.4296 0.054229 24.831 0.02835 49.661 0.026763 74.492-0.001159 17.665-0.16254 35.332 0.09961 52.993 0.07315 4.9272-1.6163 6.2938-6.3224 6.1384-9.3222-0.30786-18.669-0.31555-27.991 0.00122-4.7277 0.16058-5.8699-1.6464-5.8595-6.0751 0.12036-51.494 0.12369-102.99-0.010956-154.48-0.010956-4.1898 1.3068-6.2223 5.3079-7.5162 17.435-5.6383 35.121-9.7968 53.421-11.586 17.777-1.7378 35.388-2.1926 52.871 2.1886 23.572 5.9072 38.309 22.01 41.463 46.067 1.1611 8.8571 1.8714 17.835 1.9326 26.764 0.22376 32.662 0.094299 65.326 0.081055 97.989-0.002625 6.5204-0.036683 6.5417-6.6985 6.5559-9.1657 0.019653-18.339-0.21973-27.494 0.094544-4.7068 0.16162-5.9325-1.6077-5.8784-6.0612 0.20419-16.829 0.080017-33.662 0.078736-50.994z" fill="#4C1354"/>
<path d="m884.85 451.88c-9.9408 25.749-19.863 51.091-29.522 76.533-1.6103 4.2418-3.7786 5.7944-8.3633 5.661-11.651-0.33893-23.321-0.25452-34.977-0.034851-3.633 0.06842-5.484-1.381-6.6947-4.5464-14.11-36.893-28.252-73.773-42.406-110.65-7.4407-19.384-14.926-38.752-22.381-58.13-0.35034-0.9107-0.60498-1.8582-1.0886-3.3624 1.6759-0.24979 3.0505-0.62674 4.4266-0.63257 11.161-0.047211 22.322 0.025817 33.482-0.057129 3.0105-0.02237 4.8013 0.82196 5.9138 3.9713 6.8007 19.252 13.869 38.409 20.769 57.626 8.1293 22.643 16.166 45.32 24.284 67.967 0.60138 1.6775 1.5382 3.2348 2.9548 6.1614 2.5062-6.7072 4.6755-12.29 6.6862-17.93 13.433-37.676 26.791-75.378 40.362-113 0.68365-1.8952 3.0732-4.4552 4.7405-4.5098 11.647-0.38181 23.313-0.19656 34.972-0.1459 0.78937 0.003418 1.577 0.38928 3.3289 0.85144-12.19 31.448-24.285 62.653-36.487 94.231z" fill="#4C1354"/>
<path d="m1185.4 503.87c12.875 1.0941 23.807-3.6251 35.141-9.7961 0.2179 2.521 0.46118 4.0741 0.46814 5.6284 0.037964 8.4954-0.22974 17.001 0.12207 25.482 0.17627 4.2473-1.3759 6.7448-5.2238 7.7585-9.1033 2.3984-18.144 5.6612-27.415 6.6481-13.22 1.4074-26.464 0.78845-38.857-5.7028-14.451-7.5694-22.24-19.903-23.322-35.361-1.4611-20.873-1.0184-41.883-1.2592-62.836-0.14356-12.492-0.16089-24.989 0.038574-37.479 0.066284-4.1473-1.4153-5.6415-5.4927-5.479-5.4879 0.21875-10.994-0.05362-16.488 0.057739-3.4285 0.069488-5.2325-0.93222-5.1342-4.8165 0.20654-8.1572 0.2063-16.327 0.003662-24.484-0.095215-3.8362 1.5863-4.9221 5.0785-4.833 5.4933 0.14014 10.999-0.13458 16.489 0.060394 4.0194 0.14276 5.6838-1.2526 5.5477-5.4684-0.25232-7.821-0.33203-15.671 0.095215-23.477 0.13269-2.4248 1.5176-5.5514 3.3834-6.984 10.79-8.2856 21.886-16.174 32.916-24.145 0.72461-0.52368 1.7583-0.61984 3.537-1.2094 0 2.4959-1.22e-4 4.4166 0 6.3372 0.001464 16.325 0.15942 32.652-0.093994 48.973-0.073121 4.7084 1.6244 6.0663 6.0679 5.9941 11.991-0.19489 23.986-0.070099 35.98-0.057556 8.0287 0.008392 8.0341 0.019561 8.0444 7.7882 0.008301 6.33 0.009643 12.66-3.66e-4 18.99-0.011475 7.2837-0.018433 7.3003-7.561 7.311-12.16 0.017303-24.323 0.14807-36.48-0.058564-4.4579-0.075805-6.0775 1.3023-6.0449 5.9698 0.19019 27.151-0.22156 54.31 0.22632 81.455 0.22498 13.639 6.4508 22.423 20.232 23.734z" fill="#4C1354"/>
<path d="m1899.9 297.44c3.7637 5.49e-4 7.0399 5.49e-4 11.815 5.49e-4 -29.139 40.223-57.33 79.138-85.739 118.35 28.279 38.985 56.485 77.869 85.303 117.6-2.4791 0.25702-4.0299 0.55206-5.5819 0.55725-11.663 0.038879-23.328-0.077942-34.989 0.079651-3.5605 0.048096-5.7788-1.3051-7.8411-4.1537-26.365-36.419-52.82-72.772-79.309-109.1-2.4281-3.3302-2.8571-5.7726-0.046631-9.6029 25.635-34.938 51.195-69.938 76.182-105.34 4.6899-6.6447 9.4873-9.1436 17.237-8.5223 7.4501 0.59723 14.985 0.13004 22.971 0.13107z" fill="#4C1354"/>
<path d="m1771 409c-3.66e-4 39.652 0.003418 78.805-0.004761 117.96-0.001465 6.9696-0.024414 6.9896-6.7506 7.004-9.1633 0.019531-18.327 0.019531-27.49 0-6.7255-0.014344-6.7491-0.034363-6.75-7.0048-0.006836-59.145-0.004639-118.29-0.004639-177.44 0-15.328 0.15137-30.658-0.091187-45.982-0.071044-4.4903 1.2017-6.2783 5.8486-6.165 9.8239 0.23932 19.662 0.23941 29.485 0 4.6475-0.11328 5.8655 1.6813 5.8448 6.1644-0.1615 34.987-0.088501 69.974-0.087769 105.46z" fill="#4C1354"/>
<path d="m92.001 441c6.11e-4 -36.497 0.078453-72.495-0.098198-108.49-0.021507-4.3837 1.4754-6.9599 4.9917-9.3863 10.656-7.3533 21.059-15.073 31.582-22.621 1.3017-0.93368 2.7305-1.6901 4.9729-3.0627 0.23422 2.5622 0.52681 4.2725 0.52733 5.9828 0.022751 74.827-0.02237 149.65 0.11584 224.48 0.009048 4.902-1.5788 6.2955-6.3015 6.1521-9.99-0.30334-20.002-0.30566-29.992-3.66e-4 -4.7071 0.14386-5.8991-1.6139-5.875-6.0627 0.15584-28.83 0.078049-57.662 0.076813-86.993z" fill="#4C1354"/>
<path d="m763.07 229.32c-8.0585-0.031449-8.053-0.033203-10.38-7.3955-0.19904-0.63002-0.50665-1.2329-0.82574-1.8145-0.14044-0.25588-0.43597-0.42662-0.94891-0.90367-6.4205 6.1763-13.836 10.585-22.8 12.189-21.589 3.8648-40.862-5.3018-49.555-25.289-9.2216-21.202-8.7047-42.524 4.2323-62.345 14.095-21.596 46.746-24.83 63.496-8.8857 0.45477 0.43288 1.0775 0.68926 2.3526 1.4824 0.14301-2.2618 0.3418-3.9735 0.34515-5.6855 0.027344-13.992 0.16614-27.986-0.06665-41.974-0.073365-4.413 1.4003-5.9291 5.7473-5.698 5.4813 0.29143 11.004 0.3167 16.482-0.006531 4.6337-0.27344 5.9554 1.4951 5.9337 6.016-0.15601 32.48-0.081177 64.961-0.080811 97.442 1.22e-4 12.326-0.19134 24.656 0.091736 36.976 0.1076 4.6849-1.587 6.314-6.0457 5.9229-2.4791-0.21745-4.9935-0.033768-7.9772-0.030853m-62.085-55.061c0.64032 6.03 0.47949 12.284 2.0899 18.043 3.2287 11.546 13.397 18.467 24.626 17.898 10.728-0.5435 19.346-7.6087 21.141-19.665 1.2715-8.5401 1.3503-17.704-0.31726-26.139-3.0802-15.58-22.059-22.276-35.196-13.325-7.8815 5.3703-11.219 13.237-12.344 23.188z" fill="#4C1354"/>
<path d="m885.86 226.32c-3.3192-2.4619-6.3004-4.7737-9.2162-7.0347-0.4939 0.34138-0.91913 0.47099-1.0099 0.72176-3.3764 9.319-3.3724 9.3573-14.735 9.3054-11.349-0.051926-9.8624 0.83328-9.8765-9.9257-0.056702-43.143-0.027039-86.286-0.01825-129.43 0.001404-6.8497 0.027405-6.8612 6.8986-6.8835 4.9972-0.016251 10.003 0.18136 14.989-0.050759 3.9398-0.1834 5.2079 1.3652 5.1644 5.2362-0.16113 14.324-0.066589 28.65-0.042908 42.976 0.002442 1.4535 0.17511 2.9067 0.26605 4.318 5.7508-2.9344 11.005-6.5083 16.807-8.421 24.581-8.1029 50.425 6.6173 57.06 31.716 5.0861 19.242 4.0289 37.624-7.189 54.476-12.6 18.93-39.695 24.77-59.097 12.995m-7.8224-57.379c-0.008972 6.1589-0.32715 12.336 0.042847 18.472 0.61145 10.14 5.3092 17.809 15.177 21.336 9.0804 3.2463 16.972 1.1334 24.311-5.3677 10.791-9.5589 12.871-31.611 3.4872-45.592-7.5237-11.21-22.8-14.161-33.618-6.2229-5.5709 4.0878-8.0833 9.9331-9.3994 17.374z" fill="#4C1354"/>
<path d="m515 95.029c7.93e-4 -11.964 7.93e-4 -11.964 11.307-11.964 3.3299 3.1e-5 6.6767 0.21558 9.9855-0.047218 4.2834-0.34017 5.914 1.16 5.791 5.6356-0.27911 10.148-0.083679 20.31-0.083557 30.466 6.1e-4 33.965 0.002136 67.93-0.001465 101.9-9.15e-4 8.289-0.009277 8.289-8.5242 8.3039-0.1665 2.9e-4 -0.33301-0.001541-0.49951 4.73e-4 -7.3591 0.089126-15.84 2.0351-15.325-11.167-2.3572 1.8953-3.6445 2.7794-4.7552 3.8473-9.5244 9.1564-21.179 11.122-33.704 9.8828-23.005-2.2753-38.138-22.509-40.407-45.087-1.4678-14.603 0.61807-28.224 8.0165-40.675 13.684-23.028 44.847-27.759 64.497-12.106 0.86105 0.68596 1.794 1.2817 3.7025 2.6349v-41.621m-1.8981 65.583c-7.914-15.382-25.736-18.331-37.724-6.2419-11.465 11.562-12.633 33.637-2.3112 46.345 6.0074 7.3959 13.85 11.048 23.338 9.0756 9.62-2.0001 16.82-8.1376 17.852-17.854 1.07-10.068-0.41522-20.408-1.155-31.325z" fill="#4C1354"/>
<path d="m93 135c0.002151-13.495 0.12652-26.491-0.065323-39.483-0.060379-4.0891 1.2781-5.5227 5.4257-5.5032 28.155 0.1323 56.311 0.11916 84.466 0.013183 3.8413-0.014457 5.4929 1.2037 5.2189 5.1789-0.25145 3.6477-0.29018 7.3466 0.012329 10.987 0.37572 4.5211-1.2534 6.0812-5.8835 6.0247-17.99-0.21943-35.985-0.093376-53.977-0.080071-7.1685 0.005303-7.1823 0.02401-7.1914 7.0994-0.011841 9.163 0.16118 18.33-0.068978 27.487-0.10394 4.1353 1.3696 5.5186 5.4663 5.4794 16.325-0.15619 32.653-0.072052 48.98-0.043503 6.5814 0.011505 6.5897 0.050552 6.6136 6.7211 0.013764 3.8317-0.18416 7.6742 0.042161 11.492 0.2236 3.7725-1.3924 4.9095-4.9885 4.8841-16.159-0.11426-32.32-0.047287-48.48-0.03212-7.5541 0.007096-7.5621 0.021042-7.5664 7.7868-0.007324 13.161 0.009316 26.323-0.009483 39.484-0.009667 6.7702-0.034348 6.7824-7.0111 6.8159-4.6647 0.022415-9.3297 0.022781-13.994-2.29e-4 -6.9473-0.034272-6.9776-0.046723-6.9807-6.8462-0.013008-28.988-0.006485-57.977-0.00708-87.465z" fill="#4C1354"/>
<path d="m1025 160.89c3.5406-10.081 7.0813-19.75 10.391-29.497 0.99304-2.9247 2.4204-4.3844 5.678-4.3167 7.756 0.16119 15.518 0.051956 24.598 0.051956-3.0732 7.9311-5.6198 14.66-8.2809 21.343-12.466 31.308-24.827 62.659-37.525 93.872-4.4006 10.817-9.7798 21.147-20.428 27.523-7.7237 4.6252-15.982 6.3345-24.841 5.2755-3.574-0.42728-7.1146-1.1356-11.173-1.7979 0.97656-6.5605 1.6755-12.604 2.9376-18.527 0.23486-1.1026 2.7961-2.5452 4.1769-2.4392 14.459 1.1096 18.936-2.0955 25.049-15.542 3.0134-6.6274 2.3076-11.998-0.38214-18.298-12.121-28.391-23.892-56.931-35.748-85.434-2.1887-5.2616-1.7009-5.9239 4.111-5.9753 5.9962-0.053063 11.998 0.14359 17.988-0.06588 3.3826-0.11832 5.0243 1.1808 6.1667 4.359 7.2456 20.156 14.673 40.247 22.063 60.351 0.4234 1.1517 1.0421 2.2316 2.2274 4.7316 4.628-12.639 8.7646-23.936 12.99-35.615z" fill="#4C1354"/>
<path d="m276 170c0.002106-12.825 0.13565-25.151-0.067139-37.473-0.068237-4.1438 1.3853-5.6297 5.4812-5.4656 5.9863 0.23982 11.992 0.17606 17.984 0.031303 3.4603-0.083595 4.6455 1.3398 4.6368 4.7442-0.078674 30.812-0.10574 61.624 0.027008 92.435 0.01767 4.0974-1.6865 5.2106-5.3556 5.0689-4.1575-0.16057-8.3323-0.17752-12.488 0.008271-3.3549 0.14998-5.2419-0.83568-5.6358-4.5017-0.27152-2.5273-1.3234-4.9708-2.2036-8.0762-9.8513 11.416-22.029 15.877-36.168 15.529-22.177-0.5455-38.151-16.807-38.2-38.946-0.044479-20.152 0.087891-40.306-0.084473-60.457-0.036285-4.2441 1.1187-6.0958 5.6182-5.8482 5.4795 0.30157 10.999 0.27966 16.481 0.002952 4.4536-0.2248 6.1281 1.2123 6.0671 5.9149-0.23567 18.151 0.45346 36.329-0.27655 54.453-0.52196 12.959 8.6866 20.449 17.037 21.674 11.762 1.7248 23.773-5.6031 25.933-16.775 1.3701-7.0865 0.87323-14.534 1.2136-22.319z" fill="#4C1354"/>
<path d="m564.08 148.13c14.958-23.047 43.964-28.876 66.844-18.214 16.095 7.5002 24.332 21.562 26.016 39.23 0.37274 3.9112-0.099914 7.8961 0.1015 11.832 0.19739 3.8574-2.0204 4.2821-5.0398 4.2696-12.822-0.052948-25.645-0.014374-38.467-0.008926-8.1597 0.003479-16.32-0.050781-24.479 0.032501-5.1356 0.052429-5.7512 1.0559-4.1374 6.0923 3.643 11.37 14.791 19.316 27.237 19.917 9.7729 0.472 18.83-1.8449 27.319-6.3426 3.79-2.008 5.706-1.2088 7.1669 2.5611 1.3192 3.4042 2.8249 6.7479 4.4492 10.019 1.4935 3.0073 0.94244 5.0745-2.2138 6.374-21.076 8.6776-42.51 12.638-64.167 2.6251-15.705-7.2608-24.676-20.128-27.727-37.173-2.5925-14.486-0.013489-28.044 7.0971-41.214m47.952-1.9197c-1.3327-0.00978-2.6655-0.031295-3.9981-0.027465-11.275 0.032394-20.585 7.1948-23.461 17.969-0.68317 2.5592-0.93677 4.8866 2.6377 4.9062 13.493 0.073944 26.987 0.048248 40.48 0.025833 2.6155-0.004349 3.4498-1.2079 2.787-3.8729-2.3859-9.5935-7.603-16.457-18.445-19.001z" fill="#4C1354"/>
<path d="m394.59 126.22c14.286 4.5207 23.451 13.472 26.823 27.878 0.41132 1.7572 0.55542 3.6133 0.55862 5.424 0.037293 21.148-0.13946 42.298 0.14014 63.443 0.068726 5.1981-1.7154 6.7556-6.6011 6.4184-4.6405-0.32022-9.3205-0.042007-13.983-0.07515-6.4874-0.046127-6.5153-0.065307-6.5218-6.7953-0.017121-17.651 0.004516-35.302-0.01297-52.953-0.010468-10.567-5.3752-18.038-14.278-21.021-9.6439-3.2312-22.058 1.6774-25.834 9.6646-2.4194 5.1185-4.454 10.918-4.6632 16.488-0.61203 16.296-0.35352 32.632-0.13934 48.948 0.0578 4.4022-1.4207 5.9387-5.7413 5.7335-5.6492-0.26828-11.322-0.1618-16.981-0.05954-3.2041 0.057907-4.382-1.2939-4.3754-4.4767 0.06485-31.139 0.067413-62.278-0.002533-93.417-0.007477-3.3337 1.4766-4.394 4.5403-4.308 3.6603 0.10265 7.3502 0.27358 10.983-0.061386 4.6565-0.42932 7.257 1.0964 7.6888 6.0048 0.18088 2.0557 1.0238 4.0531 1.9056 7.3465 12.788-14.841 28.633-17.424 46.494-14.18z" fill="#4C1354"/>
</svg>
